<?xml version="1.0" encoding="UTF-8"?>
<svg width="18px" height="19px" viewBox="0 0 18 19" version="1.1" xmlns="http://www.w3.org/2000/svg" xmlns:xlink="http://www.w3.org/1999/xlink">
    <!-- Generator: Sketch 41.2 (35397) - http://www.bohemiancoding.com/sketch -->
    <title>Google + icon small hover</title>
    <desc>Created with Sketch.</desc>
    <defs></defs>
    <g id="UI-Elements" stroke="none" stroke-width="1" fill="none" fill-rule="evenodd">
        <g id="Buttons-and-UI-Elements" transform="translate(-1102.000000, -1690.000000)" fill="#2992B6">
            <g id="button/social_google+_hover" transform="translate(1102.000000, 1690.000000)">
                <path d="M5.84983756,17.8902637 C3.65139406,17.8902637 2.0647764,16.4887842 2.0647764,14.8059139 C2.0647764,13.1558907 4.03392105,11.7817838 6.23127784,11.8058718 C6.74312504,11.8124412 7.22128378,11.8945591 7.65488683,12.035802 C8.84702352,12.8723101 9.70336236,13.3442145 9.94461519,14.2967826 C9.99025761,14.490581 10.0152523,14.687664 10.0152523,14.8913165 C10.0152523,16.5752818 8.93830837,17.8902637 5.84983756,17.8902637 M6.42688823,8.01859235 C4.95220319,7.97370121 3.55032869,6.35652524 3.29603517,4.40540297 C3.04174166,2.45428071 4.03066088,0.960829095 5.50534592,1.00462533 C6.97894424,1.04951647 8.38190547,2.61413696 8.63619898,4.56635414 C8.8904925,6.5174764 7.90157327,8.06348349 6.42688823,8.01859235 M9.48384403,10.908049 C8.96656321,10.5390657 7.97873071,9.64233776 7.97873071,9.11459313 C7.97873071,8.49487641 8.15369334,8.19158748 9.07632237,7.46456998 C10.0228593,6.71893908 10.6933683,5.67111416 10.6933683,4.45357883 C10.6933683,3.00173364 10.0522009,1.58821016 8.84811024,1.12178026 L10.66294,1.12178026 L11.9441881,0.188920455 L6.21932387,0.188920455 C3.65465423,0.188920455 1.23886584,2.14770706 1.23886584,4.41635203 C1.23886584,6.73536267 2.98849216,8.60655681 5.59880422,8.60655681 C5.78137392,8.60655681 5.95633656,8.60327209 6.12912574,8.59013322 C5.96068345,8.91641517 5.83788359,9.28539845 5.83788359,9.66642569 C5.83788359,10.3113253 6.18237524,10.8346903 6.61815173,11.2606086 C6.28887423,11.2606086 5.97046397,11.2704628 5.62597233,11.2704628 C2.4473034,11.2704628 0,13.3091775 0,15.4256306 C0,17.5081416 2.6831226,18.8110795 5.86070481,18.8110795 C9.48384403,18.8110795 11.4866771,16.7395176 11.4866771,14.6559118 C11.4866771,12.9861803 10.9965644,11.9854363 9.48384403,10.908049 M17.8125,8.18830276 L15.5847149,8.18830276 L15.5847149,5.94374572 L13.7905329,5.94374572 L13.7905329,8.18830276 L11.5627478,8.18830276 L11.5627478,9.99599236 L13.7905329,9.99599236 L13.7905329,12.2405494 L15.5847149,12.2405494 L15.5847149,9.99599236 L17.8125,9.99599236 L17.8125,8.18830276" id="Google-+-icon-small-hover"></path>
            </g>
        </g>
    </g>
</svg>