<?xml version="1.0" encoding="UTF-8"?>
<svg width="17px" height="17px" viewBox="0 0 17 17" version="1.1" xmlns="http://www.w3.org/2000/svg" xmlns:xlink="http://www.w3.org/1999/xlink">
    <!-- Generator: Sketch 41.2 (35397) - http://www.bohemiancoding.com/sketch -->
    <title>Linkedin Icon small hover</title>
    <desc>Created with Sketch.</desc>
    <defs></defs>
    <g id="UI-Elements" stroke="none" stroke-width="1" fill="none" fill-rule="evenodd">
        <g id="Buttons-and-UI-Elements" transform="translate(-1138.000000, -1691.000000)" fill="#2992B6">
            <g id="button/social_LinkedIn_hover" transform="translate(1138.000000, 1691.000000)">
                <path d="M0.408447495,5.38135576 L3.56463269,5.38135576 L3.56463269,16.3810654 L0.408447495,16.3810654 L0.408447495,5.38135576 Z M1.90608831,4.00548482 L1.8832381,4.00548482 C0.740727626,4.00548482 0,3.1646172 0,2.09979471 C0,1.01319882 0.762625743,0.188920455 1.92798643,0.188920455 C3.09239502,0.188920455 3.80836825,1.01112517 3.83121846,2.09668422 C3.83121846,3.16150672 3.09239502,4.00548482 1.90608831,4.00548482 L1.90608831,4.00548482 Z M16.1931818,16.3821023 L12.6142678,16.3821023 L12.6142678,10.688879 C12.6142678,9.19895695 12.0544376,8.18286538 10.8233826,8.18286538 C9.88176353,8.18286538 9.35811289,8.86820878 9.11437733,9.53074195 C9.02297649,9.76713877 9.03725787,10.0978869 9.03725787,10.4296719 L9.03725787,16.3821023 L5.49166702,16.3821023 C5.49166702,16.3821023 5.53736744,6.29791183 5.49166702,5.38135576 L9.03725787,5.38135576 L9.03725787,7.1076746 C9.24671812,6.35286372 10.3797077,5.27559929 12.1877305,5.27559929 C14.4308594,5.27559929 16.1931818,6.85883585 16.1931818,10.2648163 L16.1931818,16.3821023 L16.1931818,16.3821023 Z" id="Linkedin-Icon-small-hover"></path>
            </g>
        </g>
    </g>
</svg>