<?xml version="1.0" encoding="UTF-8"?>
<svg width="17px" height="15px" viewBox="0 0 17 15" version="1.1" xmlns="http://www.w3.org/2000/svg" xmlns:xlink="http://www.w3.org/1999/xlink">
    <!-- Generator: Sketch 41.2 (35397) - http://www.bohemiancoding.com/sketch -->
    <title>Twitter icon small hover</title>
    <desc>Created with Sketch.</desc>
    <defs></defs>
    <g id="UI-Elements" stroke="none" stroke-width="1" fill="none" fill-rule="evenodd">
        <g id="Buttons-and-UI-Elements" transform="translate(-1066.000000, -1692.000000)" fill="#2992B6">
            <g id="button/social_twitter_hover" transform="translate(1066.000000, 1692.000000)">
                <path d="M14.9998649,2.49299293 C15.7204173,2.03828333 16.2733066,1.3172739 16.5327853,0.458377994 C15.8581406,0.880457968 15.1126384,1.18570284 14.3172363,1.35095609 C13.6825115,0.635209504 12.7753341,0.188920455 11.7713511,0.188920455 C9.84522073,0.188920455 8.28435654,1.83619018 8.28435654,3.86764741 C8.28435654,4.15605118 8.3132984,4.43708697 8.3731781,4.70549195 C5.4750006,4.55181694 2.90516346,3.08874671 1.18362208,0.861511735 C0.88322558,1.40674222 0.711570439,2.03828333 0.711570439,2.71192718 C0.711570439,3.98764022 1.32733336,5.11388853 2.26345267,5.77490156 C1.69160153,5.75595532 1.15368223,5.58859693 0.682628584,5.31492911 L0.682628584,5.36018956 C0.682628584,7.14324062 1.88421457,8.63051993 3.48200457,8.96734186 C3.18859404,9.05365247 2.88121158,9.09680778 2.56185318,9.09680778 C2.3373043,9.09680778 2.1177454,9.07470384 1.90617046,9.03154854 C2.34928024,10.4925136 3.6376918,11.557713 5.16462415,11.5861323 C3.97002413,12.5734416 2.46604566,13.1607748 0.832327835,13.1607748 C0.550893243,13.1607748 0.272452637,13.1449863 0,13.1102515 C1.54389827,14.1533469 3.3772151,14.7627841 5.34725724,14.7627841 C11.7643651,14.7627841 15.2713196,9.15680419 15.2713196,4.29499023 C15.2713196,4.13499981 15.2693236,3.97606197 15.2623376,3.81922926 C15.9439682,3.30031298 16.5367772,2.65193078 17.0028409,1.91408025 C16.377098,2.20669429 15.7044494,2.40457718 14.9998649,2.49299293 Z" id="Twitter-icon-small-hover"></path>
            </g>
        </g>
    </g>
</svg>