<?xml version="1.0" encoding="UTF-8"?>
<svg width="17px" height="15px" viewBox="0 0 17 15" version="1.1" xmlns="http://www.w3.org/2000/svg" xmlns:xlink="http://www.w3.org/1999/xlink">
    <!-- Generator: Sketch 41.2 (35397) - http://www.bohemiancoding.com/sketch -->
    <title>Twitter icon small white</title>
    <desc>Created with Sketch.</desc>
    <defs></defs>
    <g id="Pages" stroke="none" stroke-width="1" fill="none" fill-rule="evenodd">
        <g id="Multiasset-Product-page" transform="translate(-971.000000, -3549.000000)" fill="#798796">
            <g id="Group-4" transform="translate(0.000000, 3060.000000)">
                <path d="M985.999865,491.304072 C986.720417,490.849363 987.273307,490.128353 987.532785,489.269458 C986.858141,489.691538 986.112638,489.996782 985.317236,490.162036 C984.682512,489.446289 983.775334,489 982.771351,489 C980.845221,489 979.284357,490.64727 979.284357,492.678727 C979.284357,492.967131 979.313298,493.248167 979.373178,493.516571 C976.475001,493.362896 973.905163,491.899826 972.183622,489.672591 C971.883226,490.217822 971.71157,490.849363 971.71157,491.523007 C971.71157,492.79872 972.327333,493.924968 973.263453,494.585981 C972.691602,494.567035 972.153682,494.399676 971.682629,494.126009 L971.682629,494.171269 C971.682629,495.95432 972.884215,497.441599 974.482005,497.778421 C974.188594,497.864732 973.881212,497.907887 973.561853,497.907887 C973.337304,497.907887 973.117745,497.885783 972.90617,497.842628 C973.34928,499.303593 974.637692,500.368793 976.164624,500.397212 C974.970024,501.384521 973.466046,501.971854 971.832328,501.971854 C971.550893,501.971854 971.272453,501.956066 971,501.921331 C972.543898,502.964426 974.377215,503.573864 976.347257,503.573864 C982.764365,503.573864 986.27132,497.967884 986.27132,493.10607 C986.27132,492.946079 986.269324,492.787142 986.262338,492.630309 C986.943968,492.111393 987.536777,491.46301 988.002841,490.72516 C987.377098,491.017774 986.704449,491.215657 985.999865,491.304072 Z" id="Twitter-icon-small-white"></path>
            </g>
        </g>
    </g>
</svg>