<?xml version="1.0" encoding="UTF-8"?>
<svg width="17px" height="17px" viewBox="0 0 17 17" version="1.1" xmlns="http://www.w3.org/2000/svg" xmlns:xlink="http://www.w3.org/1999/xlink">
    <!-- Generator: Sketch 41.2 (35397) - http://www.bohemiancoding.com/sketch -->
    <title>LinkedIn icon small white</title>
    <desc>Created with Sketch.</desc>
    <defs></defs>
    <g id="Pages" stroke="none" stroke-width="1" fill="none" fill-rule="evenodd">
        <g id="Multiasset-Product-page" transform="translate(-1048.000000, -3548.000000)" fill="#798796">
            <g id="Group-4" transform="translate(0.000000, 3060.000000)">
                <path d="M1048.40845,493.192435 L1051.56463,493.192435 L1051.56463,504.192145 L1048.40845,504.192145 L1048.40845,493.192435 Z M1049.90609,491.816564 L1049.88324,491.816564 C1048.74073,491.816564 1048,490.975697 1048,489.910874 C1048,488.824278 1048.76263,488 1049.92799,488 C1051.0924,488 1051.80837,488.822205 1051.83122,489.907764 C1051.83122,490.972586 1051.0924,491.816564 1049.90609,491.816564 L1049.90609,491.816564 Z M1064.19318,504.193182 L1060.61427,504.193182 L1060.61427,498.499959 C1060.61427,497.010036 1060.05444,495.993945 1058.82338,495.993945 C1057.88176,495.993945 1057.35811,496.679288 1057.11438,497.341821 C1057.02298,497.578218 1057.03726,497.908966 1057.03726,498.240751 L1057.03726,504.193182 L1053.49167,504.193182 C1053.49167,504.193182 1053.53737,494.108991 1053.49167,493.192435 L1057.03726,493.192435 L1057.03726,494.918754 C1057.24672,494.163943 1058.37971,493.086679 1060.18773,493.086679 C1062.43086,493.086679 1064.19318,494.669915 1064.19318,498.075896 L1064.19318,504.193182 L1064.19318,504.193182 Z" id="LinkedIn-icon-small-white"></path>
            </g>
        </g>
    </g>
</svg>