<?xml version="1.0" encoding="UTF-8"?>
<svg width="20px" height="17px" viewBox="0 0 20 17" version="1.1" xmlns="http://www.w3.org/2000/svg" xmlns:xlink="http://www.w3.org/1999/xlink">
    <!-- Generator: Sketch 41.2 (35397) - http://www.bohemiancoding.com/sketch -->
    <title>error icon</title>
    <desc>Created with Sketch.</desc>
    <defs></defs>
    <g id="UI-Elements" stroke="none" stroke-width="1" fill="none" fill-rule="evenodd">
        <g id="Buttons-and-UI-Elements" transform="translate(-497.000000, -2825.000000)" fill="#CF0015">
            <g id="error-icon" transform="translate(497.000000, 2825.000000)">
                <path d="M19.769614,14.875 L10.9540582,0.579545455 C10.4921077,-0.193181818 9.49121491,-0.193181818 9.02926439,0.579545455 L0.2137086,14.875 C-0.325233676,15.7636364 0.2137086,17 1.17610552,17 L18.8072171,17 C19.769614,17 20.3470522,15.7636364 19.769614,14.875 Z M11.1465376,10.7980934 C11.1465376,11.0380511 10.9925541,11.1980228 10.7615788,11.1980228 L9.22174378,11.1980228 C8.99076851,11.1980228 8.83678501,11.0380511 8.83678501,10.7980934 L8.83678501,5.59901142 C8.83678501,5.35905378 8.99076851,5.19908203 9.22174378,5.19908203 L10.7615788,5.19908203 C10.9925541,5.19908203 11.1465376,5.35905378 11.1465376,5.59901142 L11.1465376,10.7980934 Z M9.99166131,14.3974579 C9.33723141,14.3974579 8.83678501,13.8775497 8.83678501,13.1976698 C8.83678501,12.5177898 9.33723141,11.9978816 9.99166131,11.9978816 C10.6460912,11.9978816 11.1465376,12.5177898 11.1465376,13.1976698 C11.1465376,13.8775497 10.6460912,14.3974579 9.99166131,14.3974579 Z"></path>
            </g>
        </g>
    </g>
</svg>