<?xml version="1.0" encoding="UTF-8"?>
<svg width="18px" height="19px" viewBox="0 0 18 19" version="1.1" xmlns="http://www.w3.org/2000/svg" xmlns:xlink="http://www.w3.org/1999/xlink">
    <!-- Generator: Sketch 41.2 (35397) - http://www.bohemiancoding.com/sketch -->
    <title>Google + icons small white</title>
    <desc>Created with Sketch.</desc>
    <defs></defs>
    <g id="Pages" stroke="none" stroke-width="1" fill="none" fill-rule="evenodd">
        <g id="Multiasset-Product-page" transform="translate(-1009.000000, -3547.000000)" fill="#798796">
            <g id="Group-4" transform="translate(0.000000, 3060.000000)">
                <path d="M1014.84984,504.701343 C1012.65139,504.701343 1011.06478,503.299864 1011.06478,501.616993 C1011.06478,499.96697 1013.03392,498.592863 1015.23128,498.616951 C1015.74313,498.623521 1016.22128,498.705639 1016.65489,498.846882 C1017.84702,499.68339 1018.70336,500.155294 1018.94462,501.107862 C1018.99026,501.301661 1019.01525,501.498744 1019.01525,501.702396 C1019.01525,503.386361 1017.93831,504.701343 1014.84984,504.701343 M1015.42689,494.829672 C1013.9522,494.784781 1012.55033,493.167605 1012.29604,491.216483 C1012.04174,489.26536 1013.03066,487.771909 1014.50535,487.815705 C1015.97894,487.860596 1017.38191,489.425217 1017.6362,491.377434 C1017.89049,493.328556 1016.90157,494.874563 1015.42689,494.829672 M1018.48384,497.719128 C1017.96656,497.350145 1016.97873,496.453417 1016.97873,495.925673 C1016.97873,495.305956 1017.15369,495.002667 1018.07632,494.27565 C1019.02286,493.530019 1019.69337,492.482194 1019.69337,491.264658 C1019.69337,489.812813 1019.0522,488.39929 1017.84811,487.93286 L1019.66294,487.93286 L1020.94419,487 L1015.21932,487 C1012.65465,487 1010.23887,488.958787 1010.23887,491.227432 C1010.23887,493.546442 1011.98849,495.417636 1014.5988,495.417636 C1014.78137,495.417636 1014.95634,495.414352 1015.12913,495.401213 C1014.96068,495.727495 1014.83788,496.096478 1014.83788,496.477505 C1014.83788,497.122405 1015.18238,497.64577 1015.61815,498.071688 C1015.28887,498.071688 1014.97046,498.081542 1014.62597,498.081542 C1011.4473,498.081542 1009,500.120257 1009,502.23671 C1009,504.319221 1011.68312,505.622159 1014.8607,505.622159 C1018.48384,505.622159 1020.48668,503.550597 1020.48668,501.466991 C1020.48668,499.79726 1019.99656,498.796516 1018.48384,497.719128 M1026.8125,494.999382 L1024.58471,494.999382 L1024.58471,492.754825 L1022.79053,492.754825 L1022.79053,494.999382 L1020.56275,494.999382 L1020.56275,496.807072 L1022.79053,496.807072 L1022.79053,499.051629 L1024.58471,499.051629 L1024.58471,496.807072 L1026.8125,496.807072 L1026.8125,494.999382" id="Google-+-icons-small-white"></path>
            </g>
        </g>
    </g>
</svg>